<?xml version="1.0" encoding="UTF-8" standalone="no"?>
<!-- Created with Inkscape (http://www.inkscape.org/) -->

<svg
   width="64"
   height="64"
   viewBox="0 0 64 64"
   version="1.1"
   id="svg1"
   inkscape:version="1.4.2 (ebf0e940d0, 2025-05-08)"
   sodipodi:docname="c2.svg"
   inkscape:export-filename="1.svg"
   inkscape:export-xdpi="96"
   inkscape:export-ydpi="96"
   xmlns:inkscape="http://www.inkscape.org/namespaces/inkscape"
   xmlns:sodipodi="http://sodipodi.sourceforge.net/DTD/sodipodi-0.dtd"
   xmlns="http://www.w3.org/2000/svg"
   xmlns:svg="http://www.w3.org/2000/svg">
  <sodipodi:namedview
     id="namedview1"
     pagecolor="#505050"
     bordercolor="#ffffff"
     borderopacity="1"
     inkscape:showpageshadow="0"
     inkscape:pageopacity="0"
     inkscape:pagecheckerboard="1"
     inkscape:deskcolor="#505050"
     inkscape:document-units="px"
     inkscape:zoom="10.870961"
     inkscape:cx="28.148385"
     inkscape:cy="32.333848"
     inkscape:window-width="1768"
     inkscape:window-height="1056"
     inkscape:window-x="0"
     inkscape:window-y="0"
     inkscape:window-maximized="1"
     inkscape:current-layer="layer1">
    <inkscape:page
       x="0"
       y="0"
       width="64"
       height="64"
       id="page2"
       margin="0"
       bleed="0" />
  </sodipodi:namedview>
  <defs
     id="defs1" />
  <g
     inkscape:label="Layer 1"
     inkscape:groupmode="layer"
     id="layer1">
    <path
       d="M 32,38.927734 26,42.392578 13.039063,49.875 7.7792969,52.912109 A 32,32 0 0 0 26,63.431641 32,32 0 0 0 32,64 32,32 0 0 0 38,63.431641 32,32 0 0 0 56.220703,52.912109 L 38,42.390625 Z"
       style="fill:#ffffff;stroke-width:2.08356"
       id="path28" />
    <path
       d="M 38,0.56835937 V 21.609375 28.535156 L 44,32 l 12.960937,7.482422 5.259766,3.037109 A 32,32 0 0 0 64,32 32,32 0 0 0 62.220703,21.480469 32,32 0 0 0 59.722656,16.015625 L 59.712891,16 l -0.002,-0.002 A 32,32 0 0 0 56.220703,11.087891 32,32 0 0 0 38,0.56835937 Z"
       style="fill:#ffffff;stroke-width:2.08356"
       id="path27" />
    <path
       d="M 26,0.56835937 A 32,32 0 0 0 7.7792969,11.087891 a 32,32 0 0 0 -6,10.392578 A 32,32 0 0 0 0,32 32,32 0 0 0 1.7792969,42.519531 L 20.001953,32 26,28.537109 V 21.607422 6.6425781 Z"
       style="fill:#ffffff;stroke-width:2.08356"
       id="path26" />
  </g>
</svg>
