<?xml version="1.0" encoding="UTF-8" standalone="no"?>
<!-- Created with Inkscape (http://www.inkscape.org/) -->

<svg
   width="64"
   height="64"
   viewBox="0 0 64 64"
   version="1.1"
   id="svg1"
   inkscape:version="1.4.2 (ebf0e940d0, 2025-05-08)"
   sodipodi:docname="cpu.svg"
   xmlns:inkscape="http://www.inkscape.org/namespaces/inkscape"
   xmlns:sodipodi="http://sodipodi.sourceforge.net/DTD/sodipodi-0.dtd"
   xmlns="http://www.w3.org/2000/svg"
   xmlns:svg="http://www.w3.org/2000/svg">
  <sodipodi:namedview
     id="namedview1"
     pagecolor="#505050"
     bordercolor="#ffffff"
     borderopacity="1"
     inkscape:showpageshadow="0"
     inkscape:pageopacity="0"
     inkscape:pagecheckerboard="1"
     inkscape:deskcolor="#505050"
     inkscape:document-units="px"
     inkscape:zoom="19.769646"
     inkscape:cx="27.036397"
     inkscape:cy="33.005143"
     inkscape:window-width="1768"
     inkscape:window-height="1056"
     inkscape:window-x="0"
     inkscape:window-y="0"
     inkscape:window-maximized="1"
     inkscape:current-layer="layer1"
     showgrid="true">
    <inkscape:grid
       id="grid2"
       units="px"
       originx="0"
       originy="0"
       spacingx="1"
       spacingy="1"
       empcolor="#0099e5"
       empopacity="0.30196078"
       color="#0099e5"
       opacity="0.14901961"
       empspacing="5"
       enabled="true"
       visible="true" />
  </sodipodi:namedview>
  <defs
     id="defs1">
    <inkscape:path-effect
       effect="mirror_symmetry"
       start_point="0,32"
       end_point="64,32"
       center_point="32,32"
       id="path-effect5"
       is_visible="true"
       lpeversion="1.2"
       lpesatellites=""
       mode="horizontal"
       discard_orig_path="false"
       fuse_paths="false"
       oposite_fuse="false"
       split_items="false"
       split_open="false"
       link_styles="false" />
    <inkscape:path-effect
       effect="mirror_symmetry"
       start_point="32,0"
       end_point="32,64"
       center_point="32,32"
       id="path-effect4"
       is_visible="true"
       lpeversion="1.2"
       lpesatellites=""
       mode="vertical"
       discard_orig_path="false"
       fuse_paths="false"
       oposite_fuse="false"
       split_items="false"
       split_open="false"
       link_styles="false" />
    <inkscape:path-effect
       effect="mirror_symmetry"
       start_point="32,0"
       end_point="32,64"
       center_point="32,32"
       id="path-effect3"
       is_visible="true"
       lpeversion="1.2"
       lpesatellites=""
       mode="vertical"
       discard_orig_path="false"
       fuse_paths="false"
       oposite_fuse="false"
       split_items="false"
       split_open="false"
       link_styles="false" />
    <linearGradient
       id="swatch2"
       inkscape:swatch="solid">
      <stop
         style="stop-color:#000000;stop-opacity:1;"
         offset="0"
         id="stop2" />
    </linearGradient>
    <linearGradient
       id="swatch1"
       inkscape:swatch="solid">
      <stop
         style="stop-color:#000000;stop-opacity:1;"
         offset="0"
         id="stop1" />
    </linearGradient>
  </defs>
  <g
     inkscape:label="Layer 1"
     inkscape:groupmode="layer"
     id="layer1">
    <path
       d="m 24,16 c -2.216,0 -4,1.784 -4,4 v 24 c 0,2.216 1.784,4 4,4 h 16 c 2.216,0 4,-1.784 4,-4 V 20 c 0,-2.216 -1.784,-4 -4,-4 z m 2,4 h 12 c 1.108,0 2,0.892 2,2 v 20 c 0,1.108 -0.892,2 -2,2 H 26 c -1.108,0 -2,-0.892 -2,-2 V 22 c 0,-1.108 0.892,-2 2,-2 z"
       style="fill:#ffffff;stroke-width:0;stroke-linecap:round;stroke-linejoin:round"
       id="path3" />
    <path
       style="fill:#ffffff;fill-opacity:1;stroke:none;stroke-width:3.65766;stroke-linecap:round;stroke-linejoin:round;stroke-dasharray:none;stroke-opacity:1"
       id="rect2"
       width="8"
       height="4"
       x="12"
       y="30"
       inkscape:path-effect="#path-effect4"
       sodipodi:type="rect"
       d="m 12,30 h 8 v 4 h -8 z m 40,0 h -8 v 4 h 8 z" />
    <path
       style="fill:#ffffff;fill-opacity:1;stroke:none;stroke-width:4;stroke-linecap:round;stroke-linejoin:round;stroke-dasharray:none;stroke-opacity:1"
       d="m 20,26 c -5.713443,0.237829 -8,-3.036269 -8,-8 h 4 c 0,2.453663 1.518472,4 4,4 v 4 m 24,0 c 5.713443,0.237829 8,-3.036269 8,-8 h -4 c 0,2.453663 -1.518472,4 -4,4 v 4 M 20,38 c -5.713443,-0.237829 -8,3.036269 -8,8 h 4 c 0,-2.453663 1.518472,-4 4,-4 v -4 m 24,0 c 5.713443,-0.237829 8,3.036269 8,8 h -4 c 0,-2.453663 -1.518472,-4 -4,-4 v -4"
       id="path2"
       sodipodi:nodetypes="ccccc"
       inkscape:path-effect="#path-effect3;#path-effect5"
       inkscape:original-d="m 20,26 c -5.713443,0.237829 -8,-3.036269 -8,-8 h 4 c 0,2.453663 1.518472,4 4,4 v 4" />
    <rect
       style="fill:#ffffff;fill-opacity:1;stroke:none;stroke-width:2.82843;stroke-linecap:round;stroke-linejoin:round;stroke-dasharray:none;stroke-opacity:1"
       id="rect5"
       width="2"
       height="24"
       x="31"
       y="20" />
    <rect
       style="fill:#ffffff;fill-opacity:1;stroke:none;stroke-width:2.82843;stroke-linecap:round;stroke-linejoin:round;stroke-dasharray:none;stroke-opacity:1"
       id="rect6"
       width="7"
       height="2"
       x="24"
       y="26" />
    <rect
       style="fill:#ffffff;fill-opacity:1;stroke:none;stroke-width:2.82843;stroke-linecap:round;stroke-linejoin:round;stroke-dasharray:none;stroke-opacity:1"
       id="rect7"
       width="7"
       height="2"
       x="33"
       y="36" />
  </g>
</svg>
